<mxfile host="Electron" agent="Mozilla/5.0 (Windows NT 10.0; Win64; x64) AppleWebKit/537.36 (KHTML, like Gecko) draw.io/24.7.8 Chrome/128.0.6613.36 Electron/32.0.1 Safari/537.36" version="24.7.8">
  <diagram name="Page-1" id="nMIdsSAGfcEbU7PECnYd">
    <mxGraphModel dx="1900" dy="621" grid="1" gridSize="10" guides="1" tooltips="1" connect="1" arrows="1" fold="1" page="1" pageScale="1" pageWidth="850" pageHeight="1100" math="0" shadow="0">
      <root>
        <mxCell id="0" />
        <mxCell id="1" parent="0" />
        <mxCell id="_Bo3_sBhR5wy6XbTODaC-23" style="edgeStyle=orthogonalEdgeStyle;rounded=0;orthogonalLoop=1;jettySize=auto;html=1;exitX=1;exitY=0.5;exitDx=0;exitDy=0;" edge="1" parent="1" source="_Bo3_sBhR5wy6XbTODaC-4" target="_Bo3_sBhR5wy6XbTODaC-37">
          <mxGeometry relative="1" as="geometry">
            <mxPoint x="300" y="280" as="targetPoint" />
            <Array as="points">
              <mxPoint x="300" y="170" />
              <mxPoint x="300" y="210" />
            </Array>
          </mxGeometry>
        </mxCell>
        <mxCell id="_Bo3_sBhR5wy6XbTODaC-35" style="edgeStyle=orthogonalEdgeStyle;rounded=0;orthogonalLoop=1;jettySize=auto;html=1;exitX=0;exitY=0;exitDx=0;exitDy=0;entryX=1;entryY=1;entryDx=0;entryDy=0;" edge="1" parent="1" source="_Bo3_sBhR5wy6XbTODaC-4" target="_Bo3_sBhR5wy6XbTODaC-7">
          <mxGeometry relative="1" as="geometry" />
        </mxCell>
        <mxCell id="_Bo3_sBhR5wy6XbTODaC-4" value="price" style="whiteSpace=wrap;html=1;align=center;" vertex="1" parent="1">
          <mxGeometry x="50" y="150" width="100" height="40" as="geometry" />
        </mxCell>
        <mxCell id="_Bo3_sBhR5wy6XbTODaC-8" style="edgeStyle=orthogonalEdgeStyle;rounded=0;orthogonalLoop=1;jettySize=auto;html=1;exitX=0.5;exitY=1;exitDx=0;exitDy=0;" edge="1" parent="1" source="_Bo3_sBhR5wy6XbTODaC-5">
          <mxGeometry relative="1" as="geometry">
            <mxPoint x="-150" y="440" as="targetPoint" />
          </mxGeometry>
        </mxCell>
        <mxCell id="_Bo3_sBhR5wy6XbTODaC-22" style="edgeStyle=orthogonalEdgeStyle;rounded=0;orthogonalLoop=1;jettySize=auto;html=1;exitX=1;exitY=0;exitDx=0;exitDy=0;" edge="1" parent="1" source="_Bo3_sBhR5wy6XbTODaC-5">
          <mxGeometry relative="1" as="geometry">
            <mxPoint x="-150" y="490" as="targetPoint" />
            <Array as="points">
              <mxPoint x="-130" y="465" />
              <mxPoint x="-149" y="465" />
            </Array>
          </mxGeometry>
        </mxCell>
        <mxCell id="_Bo3_sBhR5wy6XbTODaC-31" style="edgeStyle=orthogonalEdgeStyle;rounded=0;orthogonalLoop=1;jettySize=auto;html=1;" edge="1" parent="1" source="_Bo3_sBhR5wy6XbTODaC-5">
          <mxGeometry relative="1" as="geometry">
            <mxPoint x="-150" y="340" as="targetPoint" />
            <mxPoint x="-140" y="330" as="sourcePoint" />
          </mxGeometry>
        </mxCell>
        <mxCell id="_Bo3_sBhR5wy6XbTODaC-7" value="productid" style="ellipse;whiteSpace=wrap;html=1;align=center;" vertex="1" parent="1">
          <mxGeometry x="-100" y="120" width="50" height="40" as="geometry" />
        </mxCell>
        <mxCell id="_Bo3_sBhR5wy6XbTODaC-25" style="edgeStyle=orthogonalEdgeStyle;rounded=0;orthogonalLoop=1;jettySize=auto;html=1;exitX=0.5;exitY=0;exitDx=0;exitDy=0;" edge="1" parent="1" source="_Bo3_sBhR5wy6XbTODaC-9">
          <mxGeometry relative="1" as="geometry">
            <mxPoint x="100" y="190" as="targetPoint" />
          </mxGeometry>
        </mxCell>
        <mxCell id="_Bo3_sBhR5wy6XbTODaC-26" style="edgeStyle=orthogonalEdgeStyle;rounded=0;orthogonalLoop=1;jettySize=auto;html=1;exitX=1;exitY=0.25;exitDx=0;exitDy=0;" edge="1" parent="1" source="_Bo3_sBhR5wy6XbTODaC-9">
          <mxGeometry relative="1" as="geometry">
            <mxPoint x="220" y="410" as="targetPoint" />
          </mxGeometry>
        </mxCell>
        <mxCell id="_Bo3_sBhR5wy6XbTODaC-36" style="edgeStyle=orthogonalEdgeStyle;rounded=0;orthogonalLoop=1;jettySize=auto;html=1;" edge="1" parent="1" source="_Bo3_sBhR5wy6XbTODaC-9">
          <mxGeometry relative="1" as="geometry">
            <mxPoint x="50" y="490" as="targetPoint" />
          </mxGeometry>
        </mxCell>
        <mxCell id="_Bo3_sBhR5wy6XbTODaC-9" value="product" style="shape=ext;margin=3;double=1;whiteSpace=wrap;html=1;align=center;" vertex="1" parent="1">
          <mxGeometry x="40" y="305" width="100" height="50" as="geometry" />
        </mxCell>
        <mxCell id="_Bo3_sBhR5wy6XbTODaC-10" value="" style="endArrow=none;html=1;rounded=0;" edge="1" parent="1">
          <mxGeometry relative="1" as="geometry">
            <mxPoint x="-50" y="480" as="sourcePoint" />
            <mxPoint x="110" y="480" as="targetPoint" />
          </mxGeometry>
        </mxCell>
        <mxCell id="_Bo3_sBhR5wy6XbTODaC-12" value="" style="line;strokeWidth=1;rotatable=0;dashed=0;labelPosition=right;align=left;verticalAlign=middle;spacingTop=0;spacingLeft=6;points=[];portConstraint=eastwest;" vertex="1" parent="1">
          <mxGeometry x="-80" y="305" width="60" height="10" as="geometry" />
        </mxCell>
        <mxCell id="_Bo3_sBhR5wy6XbTODaC-30" style="edgeStyle=orthogonalEdgeStyle;rounded=0;orthogonalLoop=1;jettySize=auto;html=1;" edge="1" parent="1" source="_Bo3_sBhR5wy6XbTODaC-13">
          <mxGeometry relative="1" as="geometry">
            <mxPoint x="210" y="410" as="targetPoint" />
          </mxGeometry>
        </mxCell>
        <mxCell id="_Bo3_sBhR5wy6XbTODaC-13" value="prodouctname" style="ellipse;whiteSpace=wrap;html=1;align=center;dashed=1;" vertex="1" parent="1">
          <mxGeometry x="260" y="380" width="160" height="110" as="geometry" />
        </mxCell>
        <mxCell id="_Bo3_sBhR5wy6XbTODaC-18" style="edgeStyle=orthogonalEdgeStyle;rounded=0;orthogonalLoop=1;jettySize=auto;html=1;" edge="1" parent="1" source="_Bo3_sBhR5wy6XbTODaC-13" target="_Bo3_sBhR5wy6XbTODaC-13">
          <mxGeometry relative="1" as="geometry" />
        </mxCell>
        <mxCell id="_Bo3_sBhR5wy6XbTODaC-28" style="edgeStyle=orthogonalEdgeStyle;rounded=0;orthogonalLoop=1;jettySize=auto;html=1;exitX=0.5;exitY=0;exitDx=0;exitDy=0;" edge="1" parent="1" source="_Bo3_sBhR5wy6XbTODaC-24">
          <mxGeometry relative="1" as="geometry">
            <mxPoint x="50" y="490" as="targetPoint" />
          </mxGeometry>
        </mxCell>
        <mxCell id="_Bo3_sBhR5wy6XbTODaC-24" value="countity" style="ellipse;shape=doubleEllipse;margin=3;whiteSpace=wrap;html=1;align=center;" vertex="1" parent="1">
          <mxGeometry x="10" y="530" width="100" height="50" as="geometry" />
        </mxCell>
        <mxCell id="_Bo3_sBhR5wy6XbTODaC-27" value="Text" style="text;html=1;align=center;verticalAlign=middle;resizable=0;points=[];autosize=1;strokeColor=none;fillColor=none;" vertex="1" parent="1">
          <mxGeometry x="260" y="230" width="50" height="30" as="geometry" />
        </mxCell>
        <mxCell id="_Bo3_sBhR5wy6XbTODaC-32" style="edgeStyle=orthogonalEdgeStyle;rounded=0;orthogonalLoop=1;jettySize=auto;html=1;exitX=0.5;exitY=1;exitDx=0;exitDy=0;" edge="1" parent="1" source="_Bo3_sBhR5wy6XbTODaC-5" target="_Bo3_sBhR5wy6XbTODaC-5">
          <mxGeometry relative="1" as="geometry" />
        </mxCell>
        <mxCell id="_Bo3_sBhR5wy6XbTODaC-33" value="" style="edgeStyle=orthogonalEdgeStyle;rounded=0;orthogonalLoop=1;jettySize=auto;html=1;" edge="1" parent="1" target="_Bo3_sBhR5wy6XbTODaC-5">
          <mxGeometry relative="1" as="geometry">
            <mxPoint x="-150" y="340" as="targetPoint" />
            <mxPoint x="-140" y="330" as="sourcePoint" />
          </mxGeometry>
        </mxCell>
        <mxCell id="_Bo3_sBhR5wy6XbTODaC-34" style="edgeStyle=orthogonalEdgeStyle;rounded=0;orthogonalLoop=1;jettySize=auto;html=1;exitX=1;exitY=0.5;exitDx=0;exitDy=0;" edge="1" parent="1" source="_Bo3_sBhR5wy6XbTODaC-5" target="_Bo3_sBhR5wy6XbTODaC-9">
          <mxGeometry relative="1" as="geometry" />
        </mxCell>
        <mxCell id="_Bo3_sBhR5wy6XbTODaC-5" value="order" style="shape=rhombus;double=1;perimeter=rhombusPerimeter;whiteSpace=wrap;html=1;align=center;" vertex="1" parent="1">
          <mxGeometry x="-210" y="330" width="120" height="70" as="geometry" />
        </mxCell>
        <mxCell id="_Bo3_sBhR5wy6XbTODaC-38" style="edgeStyle=orthogonalEdgeStyle;rounded=0;orthogonalLoop=1;jettySize=auto;html=1;" edge="1" parent="1" source="_Bo3_sBhR5wy6XbTODaC-37" target="_Bo3_sBhR5wy6XbTODaC-39">
          <mxGeometry relative="1" as="geometry">
            <mxPoint x="450" y="330" as="targetPoint" />
          </mxGeometry>
        </mxCell>
        <mxCell id="_Bo3_sBhR5wy6XbTODaC-37" value="last name" style="ellipse;whiteSpace=wrap;html=1;align=center;" vertex="1" parent="1">
          <mxGeometry x="280" y="230" width="100" height="40" as="geometry" />
        </mxCell>
        <mxCell id="_Bo3_sBhR5wy6XbTODaC-39" value="first name&lt;div&gt;&lt;br&gt;&lt;/div&gt;" style="ellipse;whiteSpace=wrap;html=1;align=center;" vertex="1" parent="1">
          <mxGeometry x="400" y="310" width="100" height="40" as="geometry" />
        </mxCell>
        <mxCell id="_Bo3_sBhR5wy6XbTODaC-40" style="edgeStyle=orthogonalEdgeStyle;rounded=0;orthogonalLoop=1;jettySize=auto;html=1;exitX=0.5;exitY=1;exitDx=0;exitDy=0;" edge="1" parent="1" source="_Bo3_sBhR5wy6XbTODaC-13" target="_Bo3_sBhR5wy6XbTODaC-13">
          <mxGeometry relative="1" as="geometry" />
        </mxCell>
      </root>
    </mxGraphModel>
  </diagram>
</mxfile>
